<svg width="106.500000" height="49.000000" viewBox="0 0 106.5 49" fill="none" xmlns="http://www.w3.org/2000/svg" xmlns:xlink="http://www.w3.org/1999/xlink">
	<desc>
			Created with Pixso.
	</desc>
	<defs/>
	<path id="Vector 46" d="M19.5 49L41.5 49L22 26L41.5 0L20 0L0 26L19.5 49Z" fill="#1FDAFF" fill-opacity="1.000000" fill-rule="nonzero"/>
	<path id="Vector 46" d="M22 26L41.5 0L20 0L0 26L19.5 49L41.5 49L39.8 47L22 26ZM37.18 47L19.44 26.07L37.5 2L20.98 2L2.57 25.93L20.42 47L37.18 47Z" fill="#1FDAFF" fill-opacity="1.000000" fill-rule="evenodd"/>
	<path id="Vector 47" d="M52.5 49L75 49L55 25.5L74.5 0L52.5 0L33 25.5L52.5 49Z" fill="#1FDAFF" fill-opacity="1.000000" fill-rule="nonzero"/>
	<path id="Vector 47" d="M55 25.5L72.97 2L74.5 0L52.5 0L33 25.5L52.5 49L75 49L73.29 47L55 25.5ZM70.67 47L52.43 25.56L70.45 2L53.48 2L35.55 25.44L53.43 47L70.67 47Z" fill="#1FDAFF" fill-opacity="1.000000" fill-rule="evenodd"/>
	<path id="Vector 48" d="M84.5 49L106.5 49L87 25.5L106.5 0L84.5 0L65 25.5L84.5 49Z" fill="#1FDAFF" fill-opacity="1.000000" fill-rule="nonzero"/>
	<path id="Vector 48" d="M87 25.5L104.97 2L106.5 0L84.5 0L65 25.5L84.5 49L106.5 49L104.84 47L87 25.5ZM102.24 47L84.44 25.55L102.45 2L85.48 2L67.55 25.44L85.43 47L102.24 47Z" fill="#1FDAFF" fill-opacity="1.000000" fill-rule="evenodd"/>
</svg>
