<svg width="162.500000" height="54.637695" viewBox="0 0 162.5 54.6377" fill="none" xmlns="http://www.w3.org/2000/svg" xmlns:xlink="http://www.w3.org/1999/xlink">
	<desc>
			Created with Pixso.
	</desc>
	<defs/>
	<path id="Vector 1" d="M56.45 0.25L136.21 0.25L140.34 4.38L156.87 4.38L162.25 9.75L162.25 17.19L159.35 20.08L159.35 33.31L162.25 36.2L162.25 44.05L151.91 54.38L56.45 54.38L51.08 49.01L33.72 49.01L28.35 54.38L8.51 54.38L0.25 46.12L0.25 25.45L20.91 4.79L51.9 4.79L56.45 0.25Z" fill="#1D0D30" fill-opacity="1.000000" fill-rule="evenodd"/>
	<path id="Vector 1" d="M108.52 0.25L136.21 0.25L140.34 4.79L156.87 4.79L161.83 9.75L161.83 17.19L159.35 20.08L159.35 33.72L161.83 36.2L162.25 44.05L151.91 54.38L108.52 53.97L108.52 0.25Z" fill="#5700B1" fill-opacity="1.000000" fill-rule="nonzero"/>
	<path id="Vector 1" d="M53.56 0.25L50.66 3.14L22.56 3.14L25.45 0.25L53.56 0.25Z" fill="#5700B1" fill-opacity="1.000000" fill-rule="evenodd"/>
	<path id="Vector 1" d="M31.24 54.38L34.96 50.66L50.25 50.66L53.97 54.38L31.24 54.38Z" fill="#5700B1" fill-opacity="1.000000" fill-rule="evenodd"/>
	<path id="Vector 1" d="M159.35 20.08L159.35 33.31L162.25 36.2L162.25 44.05L151.91 54.38L56.45 54.38L51.08 49.01L33.72 49.01L28.35 54.38L8.51 54.38L0.25 46.12L0.25 25.45L20.91 4.79L51.9 4.79L56.45 0.25L136.21 0.25L140.34 4.38L156.87 4.38L162.25 9.75L162.25 17.19L159.35 20.08M151.91 54.38L108.52 53.97L108.52 0.25L136.21 0.25M136.21 0.25L140.34 4.79L156.87 4.79L161.83 9.75L161.83 17.19L159.35 20.08L159.35 33.72L161.83 36.2L162.25 44.05M50.66 3.14L22.56 3.14L25.45 0.25L53.56 0.25L50.66 3.14ZM34.96 50.66L50.25 50.66L53.97 54.38L31.24 54.38L34.96 50.66Z" stroke="#5700B1" stroke-opacity="1.000000" stroke-width="0.500000"/>
</svg>
