<svg width="163.000000" height="55.137695" viewBox="0 0 163 55.1377" fill="none" xmlns="http://www.w3.org/2000/svg" xmlns:xlink="http://www.w3.org/1999/xlink">
	<desc>
			Created with Pixso.
	</desc>
	<defs>
		<linearGradient x1="81.500000" y1="0.500000" x2="81.500000" y2="54.637695" id="paint_linear_6_171_0" gradientUnits="userSpaceOnUse">
			<stop stop-color="#101010"/>
			<stop offset="1.000000" stop-color="#E31373"/>
		</linearGradient>
	</defs>
	<linearGradient x1="81.500000" y1="0.500000" x2="81.500000" y2="54.637695" id="paint_linear_6_1710_0" gradientUnits="userSpaceOnUse">
		<stop stop-color="#101010"/>
		<stop offset="1.000000" stop-color="#E31373"/>
	</linearGradient>
	<path id="Vector 12" d="M56.7 0.5L136.46 0.5L140.59 4.63L157.12 4.63L162.5 10L162.5 17.44L159.6 20.33L159.6 33.56L162.5 36.45L162.5 44.3L152.16 54.63L56.7 54.63L51.33 49.26L33.97 49.26L28.6 54.63L8.76 54.63L0.5 46.37L0.5 25.7L21.16 5.04L52.15 5.04L56.7 0.5Z" fill="url(#paint_linear_6_1710_0)" fill-opacity="1.000000" fill-rule="evenodd"/>
	<path id="Vector 12" d="M53.81 0.5L50.91 3.39L22.81 3.39L25.7 0.5L53.81 0.5Z" fill="#E31373" fill-opacity="1.000000" fill-rule="evenodd"/>
	<path id="Vector 12" d="M31.49 54.63L35.21 50.91L50.5 50.91L54.22 54.63L31.49 54.63Z" fill="#E31373" fill-opacity="1.000000" fill-rule="evenodd"/>
	<path id="Vector 12" d="M162.5 33.5L161.5 32.5L161.5 21L162.5 20L162.5 33.5Z" fill="#E31373" fill-opacity="1.000000" fill-rule="evenodd"/>
	<path id="Vector 12" d="M136.46 0.5L140.59 4.63L157.12 4.63L162.5 10L162.5 17.44L159.6 20.33L159.6 33.56L162.5 36.45L162.5 44.3L152.16 54.63L56.7 54.63L51.33 49.26L33.97 49.26L28.6 54.63L8.76 54.63L0.5 46.37L0.5 25.7L21.16 5.04L52.15 5.04L56.7 0.5L136.46 0.5ZM50.91 3.39L22.81 3.39L25.7 0.5L53.81 0.5L50.91 3.39ZM35.21 50.91L50.5 50.91L54.22 54.63L31.49 54.63L35.21 50.91ZM161.5 32.5L161.5 21L162.5 20L162.5 33.5L161.5 32.5Z" stroke="#E31373" stroke-opacity="1.000000" stroke-width="1.000000"/>
</svg>
