<svg width="637.000000" height="160.249023" viewBox="0 0 637 160.249" fill="none" xmlns="http://www.w3.org/2000/svg" xmlns:xlink="http://www.w3.org/1999/xlink">
	<desc>
			Created with Pixso.
	</desc>
	<defs/>
	<path id="Vector 83" d="M1 109.17L6.34 114.51L6.34 130.53L1 135.87L1 109.17Z" fill="#5700B1" fill-opacity="1.000000" fill-rule="evenodd"/>
	<path id="Vector 83" d="M636 91.8L631.99 87.8L631.99 69.1L636 65.1C636 69.32 636 91.8 636 91.8Z" fill="#5700B1" fill-opacity="1.000000" fill-rule="evenodd"/>
	<path id="Vector 83" d="M53.08 1L375.59 1L388.94 14.35L447.03 14.35L460.39 1L636 1L636 57.75L627.98 65.76L627.98 91.14L636 99.15L636 115.84L592.59 159.24L302.14 159.24L286.78 143.89L225.35 143.89L209.99 159.24L1 159.24L1 143.22L11.01 133.2L11.01 111.17L1 101.15L1 53.08L53.08 1Z" fill="#120024" fill-opacity="1.000000" fill-rule="evenodd"/>
	<path id="Vector 83" d="M219.34 159.24L229.35 149.23L284.11 149.23L294.12 159.24L219.34 159.24Z" fill="#5700B1" fill-opacity="1.000000" fill-rule="evenodd"/>
	<path id="Vector 83" d="M384.93 1L450.37 1L443.03 8.34L392.28 8.34L384.93 1Z" fill="#5700B1" fill-opacity="1.000000" fill-rule="evenodd"/>
	<path id="Vector 83" d="M6.34 114.51L6.34 130.53L1 135.87L1 109.17L6.34 114.51ZM631.99 87.8L631.99 69.1L636 65.1C636 69.32 636 91.8 636 91.8L631.99 87.8ZM375.59 1L388.94 14.35L447.03 14.35L460.39 1L636 1L636 57.75L627.98 65.76L627.98 91.14L636 99.15L636 115.84L592.59 159.24L302.14 159.24L286.78 143.89L225.35 143.89L209.99 159.24L1 159.24L1 143.22L11.01 133.2L11.01 111.17L1 101.15L1 53.08L53.08 1L375.59 1ZM229.35 149.23L284.11 149.23L294.12 159.24L219.34 159.24L229.35 149.23ZM450.37 1L443.03 8.34L392.28 8.34L384.93 1L450.37 1Z" stroke="#5700B1" stroke-opacity="1.000000" stroke-width="2.000000"/>
</svg>
