<svg width="32.000000" height="32.000000" viewBox="0 0 32 32" fill="none" xmlns="http://www.w3.org/2000/svg" xmlns:xlink="http://www.w3.org/1999/xlink">
	<desc>
			Created with Pixso.
	</desc>
	<defs/>
	<path id="Vector" d="M31.08 4.37C30.61 3.9 29.84 3.9 29.37 4.37L14.91 18.8L9.69 13.13C9.24 12.64 8.47 12.61 7.98 13.06C7.49 13.51 7.46 14.27 7.91 14.76L13.98 21.35C14.09 21.47 14.23 21.57 14.37 21.64C14.52 21.7 14.68 21.74 14.84 21.74C14.85 21.74 14.86 21.74 14.87 21.74C15.19 21.74 15.5 21.62 15.72 21.39L31.08 6.08C31.55 5.61 31.55 4.84 31.08 4.37Z" fill="#1FDAFF" fill-opacity="1.000000" fill-rule="nonzero"/>
	<path id="Vector" d="M30.79 14.79C30.12 14.79 29.58 15.33 29.58 16C29.58 23.49 23.49 29.58 16 29.58C8.5 29.58 2.41 23.49 2.41 16C2.41 8.5 8.5 2.41 16 2.41C16.66 2.41 17.2 1.87 17.2 1.2C17.2 0.54 16.66 0 16 0C7.17 0 0 7.17 0 16C0 24.82 7.17 32 16 32C24.82 32 32 24.82 32 16C32 15.33 31.46 14.79 30.79 14.79Z" fill="#1FDAFF" fill-opacity="1.000000" fill-rule="nonzero"/>
</svg>
