<svg width="228.000000" height="100.000000" viewBox="0 0 228 100" fill="none" xmlns="http://www.w3.org/2000/svg" xmlns:xlink="http://www.w3.org/1999/xlink">
	<desc>
			Created with Pixso.
	</desc>
	<defs>
		<clipPath id="clip1_3747">
			<rect id="Stripe_Logo,_revised_2016 3" rx="0.000000" width="163.000000" height="67.000000" transform="translate(32.500000 18.500000)" fill="white" fill-opacity="0"/>
		</clipPath>
	</defs>
	<rect id="Rectangle 2715" rx="10.000000" width="228.000000" height="100.000000" fill="#FFFFFF" fill-opacity="1.000000"/>
	<rect id="Rectangle 2715" x="1.500000" y="1.500000" rx="10.000000" width="225.000000" height="97.000000" stroke="#000000" stroke-opacity="0" stroke-width="3.000000"/>
	<rect id="Stripe_Logo,_revised_2016 3" rx="0.000000" width="163.000000" height="67.000000" transform="translate(32.500000 18.500000)" fill="#FFFFFF" fill-opacity="0"/>
	<g clip-path="url(#clip1_3747)">
		<path id="Vector" d="M195.99 53.12C195.99 41.5 190.34 32.34 179.54 32.34C168.7 32.34 162.14 41.5 162.14 53.03C162.14 66.69 169.88 73.59 181 73.59C186.42 73.59 190.52 72.36 193.62 70.64L193.62 61.56C190.52 63.1 186.97 64.06 182.46 64.06C178.04 64.06 174.12 62.51 173.62 57.16L195.89 57.16C195.89 56.57 195.99 54.21 195.99 53.12ZM173.48 48.81C173.48 43.68 176.63 41.55 179.5 41.55C182.27 41.55 185.24 43.68 185.24 48.81L173.48 48.81Z" fill="#635BFF" fill-opacity="1.000000" fill-rule="evenodd"/>
		<path id="Vector" d="M144.56 32.34C140.09 32.34 137.22 34.42 135.63 35.88L135.04 33.06L125.02 33.06L125.02 85.98L136.4 83.57L136.45 70.73C138.09 71.91 140.5 73.59 144.51 73.59C152.67 73.59 160.09 67.05 160.09 52.67C160.05 39.51 152.53 32.34 144.56 32.34ZM141.82 63.6C139.14 63.6 137.54 62.65 136.45 61.47L136.4 44.63C137.59 43.32 139.23 42.41 141.82 42.41C145.97 42.41 148.84 47.04 148.84 52.98C148.84 59.07 146.02 63.6 141.82 63.6Z" fill="#635BFF" fill-opacity="1.000000" fill-rule="evenodd"/>
		<path id="Vector" d="M109.35 29.66L120.78 27.21L120.78 18L109.35 20.4L109.35 29.66Z" fill="#635BFF" fill-opacity="1.000000" fill-rule="evenodd"/>
		<path id="Vector" d="M109.35 33.11L120.78 33.11L120.78 72.82L109.35 72.82L109.35 33.11Z" fill="#635BFF" fill-opacity="1.000000" fill-rule="evenodd"/>
		<path id="Vector" d="M97.09 36.47L96.36 33.11L86.52 33.11L86.52 72.82L97.91 72.82L97.91 45.9C100.6 42.41 105.15 43.05 106.57 43.54L106.57 33.11C105.11 32.56 99.78 31.56 97.09 36.47Z" fill="#635BFF" fill-opacity="1.000000" fill-rule="evenodd"/>
		<path id="Vector" d="M74.31 23.26L63.2 25.62L63.15 61.97C63.15 68.69 68.21 73.63 74.95 73.63C78.69 73.63 81.42 72.95 82.92 72.14L82.92 62.92C81.47 63.51 74.27 65.6 74.27 58.88L74.27 42.77L82.92 42.77L82.92 33.11L74.27 33.11L74.31 23.26Z" fill="#635BFF" fill-opacity="1.000000" fill-rule="evenodd"/>
		<path id="Vector" d="M43.52 44.63C43.52 42.86 44.98 42.18 47.39 42.18C50.85 42.18 55.23 43.23 58.69 45.09L58.69 34.42C54.91 32.93 51.17 32.34 47.39 32.34C38.15 32.34 32 37.15 32 45.18C32 57.7 49.31 55.71 49.31 61.11C49.31 63.2 47.48 63.88 44.93 63.88C41.15 63.88 36.32 62.33 32.5 60.25L32.5 71.05C36.73 72.86 41.01 73.63 44.93 73.63C54.41 73.63 60.92 68.96 60.92 60.84C60.88 47.31 43.52 49.72 43.52 44.63Z" fill="#635BFF" fill-opacity="1.000000" fill-rule="evenodd"/>
	</g>
</svg>
