<svg width="228.000000" height="100.000000" viewBox="0 0 228 100" fill="none" xmlns="http://www.w3.org/2000/svg" xmlns:xlink="http://www.w3.org/1999/xlink">
	<desc>
			Created with Pixso.
	</desc>
	<defs>
		<clipPath id="clip1_3782">
			<rect id="mollie-1 1" rx="0.000000" width="163.000000" height="47.741261" transform="translate(32.500000 24.500000)" fill="white" fill-opacity="0"/>
		</clipPath>
	</defs>
	<rect id="Rectangle 2715" rx="10.000000" width="228.000000" height="100.000000" fill="#FFFFFF" fill-opacity="1.000000"/>
	<rect id="Rectangle 2715" x="0.500000" y="0.500000" rx="10.000000" width="227.000000" height="99.000000" stroke="#7A7A7A" stroke-opacity="0" stroke-width="1.000000"/>
	<rect id="mollie-1 1" rx="0.000000" width="163.000000" height="47.741261" transform="translate(32.500000 24.500000)" fill="#FFFFFF" fill-opacity="0"/>
	<g clip-path="url(#clip1_3782)">
		<path id="Vector" d="M101.36 39.91C92.35 39.91 85.05 47.28 85.05 56.32C85.05 65.37 92.37 72.74 101.36 72.74C110.35 72.74 117.68 65.37 117.68 56.32C117.68 47.28 110.37 39.91 101.36 39.91ZM101.36 64.97C96.63 64.97 92.78 61.1 92.78 56.34C92.78 51.58 96.63 47.71 101.36 47.71C106.09 47.71 109.94 51.58 109.94 56.34C109.94 61.1 106.09 64.97 101.36 64.97Z" fill="#000000" fill-opacity="1.000000" fill-rule="nonzero"/>
		<path id="Vector" d="M155.63 34.23C158.44 34.23 160.72 31.94 160.72 29.11C160.72 26.28 158.44 24 155.63 24C152.82 24 150.54 26.29 150.54 29.12C150.54 31.95 152.82 34.23 155.63 34.23Z" fill="#000000" fill-opacity="1.000000" fill-rule="nonzero"/>
		<path id="Vector" d="M68.05 39.93C67.62 39.89 67.22 39.87 66.8 39.87C62.86 39.87 59.13 41.5 56.45 44.36C53.77 41.51 50.06 39.87 46.16 39.87C38.35 39.88 32 46.25 32 54.11L32 72.07L39.62 72.07L39.62 54.32C39.62 51.06 42.29 48.06 45.42 47.74C45.65 47.72 45.86 47.71 46.07 47.71C49.59 47.71 52.48 50.6 52.5 54.15L52.5 72.06L60.3 72.06L60.3 54.29C60.3 51.05 62.94 48.05 66.09 47.73C66.32 47.71 66.53 47.69 66.74 47.69C70.27 47.69 73.16 50.58 73.18 54.11L73.18 72.07L80.98 72.07L80.98 54.32C80.98 50.73 79.65 47.26 77.27 44.58C74.88 41.89 71.61 40.24 68.05 39.93Z" fill="#000000" fill-opacity="1.000000" fill-rule="nonzero"/>
		<path id="Vector" d="M129.68 24.76L121.88 24.76L121.88 72.1L129.68 72.1L129.68 24.76ZM144.61 24.76L136.81 24.76L136.81 72.1L144.61 72.1L144.61 24.76ZM159.53 40.7L151.74 40.7L151.74 72.09L159.53 72.09L159.53 40.7Z" fill="#000000" fill-opacity="1.000000" fill-rule="nonzero"/>
		<path id="Vector" d="M196 55.59C196 51.43 194.38 47.51 191.47 44.52C188.54 41.54 184.67 39.88 180.55 39.88L180.35 39.88C176.07 39.93 172.03 41.63 169.02 44.69C166 47.75 164.3 51.78 164.25 56.1C164.2 60.5 165.88 64.67 168.98 67.82C172.09 70.97 176.19 72.72 180.57 72.72L180.59 72.72C186.32 72.72 191.69 69.63 194.63 64.67L195.01 64.03L188.56 60.84L188.24 61.37C186.61 64.05 183.82 65.64 180.72 65.64C176.75 65.64 173.33 62.98 172.27 59.19L196 59.19L196 55.59ZM180.24 47.01C183.8 47.01 186.99 49.36 188.11 52.7L172.39 52.7C173.49 49.36 176.68 47.01 180.24 47.01Z" fill="#000000" fill-opacity="1.000000" fill-rule="nonzero"/>
	</g>
</svg>
