<svg width="1920.000000" height="1091.000000" viewBox="0 0 1920 1091" fill="none" xmlns="http://www.w3.org/2000/svg" xmlns:xlink="http://www.w3.org/1999/xlink">
	<desc>
			Created with Pixso.
	</desc>
	<defs>
		<filter id="filter_6_183_dd" x="1172.799805" y="-172.200104" width="1811.400391" height="1555.400146" filterUnits="userSpaceOnUse" color-interpolation-filters="sRGB">
			<feFlood flood-opacity="0" result="BackgroundImageFix"/>
			<feBlend mode="normal" in="SourceGraphic" in2="BackgroundImageFix" result="shape"/>
			<feGaussianBlur stdDeviation="99.0667" result="effect_layerBlur_1"/>
		</filter>
		<filter id="filter_6_185_dd" x="460.799805" y="687.799927" width="997.400391" height="884.400146" filterUnits="userSpaceOnUse" color-interpolation-filters="sRGB">
			<feFlood flood-opacity="0" result="BackgroundImageFix"/>
			<feBlend mode="normal" in="SourceGraphic" in2="BackgroundImageFix" result="shape"/>
			<feGaussianBlur stdDeviation="99.0667" result="effect_layerBlur_1"/>
		</filter>
		<filter id="filter_6_187_dd" x="-891.200195" y="-190.200104" width="1702.400391" height="1525.400146" filterUnits="userSpaceOnUse" color-interpolation-filters="sRGB">
			<feFlood flood-opacity="0" result="BackgroundImageFix"/>
			<feBlend mode="normal" in="SourceGraphic" in2="BackgroundImageFix" result="shape"/>
			<feGaussianBlur stdDeviation="99.0667" result="effect_layerBlur_1"/>
		</filter>
		<clipPath id="clip6_178">
			<rect id="section_bg1" width="1920.000000" height="1091.000000" fill="white" fill-opacity="0"/>
		</clipPath>
		<radialGradient gradientTransform="translate(2078.5 605.5) rotate(90) scale(480.5 608.5)" cx="0.000000" cy="0.000000" r="1.000000" id="paint_radial_6_184_0" gradientUnits="userSpaceOnUse">
			<stop offset="0.401000" stop-color="#1FDAFF"/>
			<stop offset="1.000000" stop-color="#111012"/>
		</radialGradient>
		<radialGradient gradientTransform="translate(959.5 1130) rotate(90) scale(145 201.5)" cx="0.000000" cy="0.000000" r="1.000000" id="paint_radial_6_186_0" gradientUnits="userSpaceOnUse">
			<stop stop-color="#1FDAFF"/>
			<stop offset="1.000000" stop-color="#111012"/>
		</radialGradient>
		<radialGradient gradientTransform="translate(-40 572.5) rotate(90) scale(465.5 554)" cx="0.000000" cy="0.000000" r="1.000000" id="paint_radial_6_188_0" gradientUnits="userSpaceOnUse">
			<stop offset="0.401000" stop-color="#5700B1"/>
			<stop offset="1.000000" stop-color="#111012"/>
		</radialGradient>
	</defs>
	<g clip-path="url(#clip6_178)">
		<mask id="mask6_181" mask-type="alpha" maskUnits="userSpaceOnUse" x="1.250000" y="1.250000" width="1917.500000" height="1088.500000">
			<rect id="Frame 1142815205" x="1.250000" y="1.250000" width="1917.500000" height="1088.500000" fill="#000000" fill-opacity="1.000000"/>
		</mask>
		<g mask="url(#mask6_181)">
			<g opacity="0.700000" filter="url(#filter_6_183_dd)">
				<ellipse id="Ellipse 7" cx="2078.500000" cy="605.500000" rx="608.500000" ry="480.500000" fill="url(#paint_radial_6_184_0)" fill-opacity="1.000000"/>
			</g>
			<g opacity="0.720000" filter="url(#filter_6_185_dd)">
				<ellipse id="Ellipse 8" cx="959.500000" cy="1130.000000" rx="201.500000" ry="145.000000" fill="url(#paint_radial_6_186_0)" fill-opacity="1.000000"/>
			</g>
			<g opacity="0.620000" filter="url(#filter_6_187_dd)">
				<ellipse id="Ellipse 6" cx="-40.000000" cy="572.500000" rx="554.000000" ry="465.500000" fill="url(#paint_radial_6_188_0)" fill-opacity="1.000000"/>
			</g>
			<path id="Line 4" d="M988.29 207.68L988.26 207.68C987.88 207.27 987.9 206.65 988.31 206.26C988.72 205.88 989.35 205.9 989.73 206.31L989.73 206.34L988.29 207.68ZM1011.44 229.63L1011.47 229.63C1011.85 230.04 1011.83 230.67 1011.42 231.05C1011.01 231.43 1010.39 231.41 1010.01 231L1010.01 230.97L1011.44 229.63Z" fill="#000000" fill-opacity="0" fill-rule="nonzero"/>
			<path id="Line 4" d="M989 207L1010.74 230.32" stroke="#5700B1" stroke-opacity="1.000000" stroke-width="2.000000" stroke-linecap="round"/>
			<path id="Line 5" d="M989.72 230.66L989.72 230.69C989.33 231.09 988.71 231.11 988.3 230.72C987.9 230.33 987.89 229.71 988.27 229.3L988.3 229.3L989.72 230.66ZM1010.28 206.33L1010.28 206.3C1010.66 205.9 1011.29 205.89 1011.69 206.27C1012.1 206.66 1012.11 207.28 1011.72 207.69L1011.69 207.69L1010.28 206.33Z" fill="#000000" fill-opacity="0" fill-rule="nonzero"/>
			<path id="Line 5" d="M989 230L1011 207" stroke="#5700B1" stroke-opacity="1.000000" stroke-width="2.000000" stroke-linecap="round"/>
			<path id="Line 4" d="M127.29 177.68L127.26 177.68C126.88 177.27 126.9 176.65 127.31 176.26C127.72 175.88 128.35 175.9 128.73 176.31L128.73 176.34L127.29 177.68ZM150.43 199.63L150.46 199.63C150.84 200.04 150.82 200.67 150.41 201.05C150 201.43 149.38 201.41 148.99 201L149 200.97L150.43 199.63Z" fill="#000000" fill-opacity="0" fill-rule="nonzero"/>
			<path id="Line 4" d="M128 177L149.73 200.32" stroke="#5700B1" stroke-opacity="1.000000" stroke-width="2.000000" stroke-linecap="round"/>
			<path id="Line 5" d="M128.72 200.66L128.72 200.69C128.33 201.09 127.71 201.11 127.3 200.72C126.9 200.33 126.89 199.71 127.27 199.3L127.3 199.3L128.72 200.66ZM149.27 176.33L149.27 176.3C149.66 175.9 150.28 175.89 150.69 176.27C151.09 176.66 151.11 177.28 150.72 177.69L150.69 177.69L149.27 176.33Z" fill="#000000" fill-opacity="0" fill-rule="nonzero"/>
			<path id="Line 5" d="M128 200L150 177" stroke="#5700B1" stroke-opacity="1.000000" stroke-width="2.000000" stroke-linecap="round"/>
			<path id="Line 4" d="M765.29 857.68L765.26 857.68C764.88 857.27 764.9 856.65 765.31 856.26C765.72 855.88 766.35 855.9 766.73 856.31L766.73 856.34L765.29 857.68ZM788.43 879.63L788.46 879.63C788.84 880.04 788.82 880.67 788.41 881.05C788 881.43 787.38 881.41 786.99 881L787 880.97L788.43 879.63Z" fill="#000000" fill-opacity="0" fill-rule="nonzero"/>
			<path id="Line 4" d="M766 857L787.73 880.32" stroke="#5700B1" stroke-opacity="1.000000" stroke-width="2.000000" stroke-linecap="round"/>
			<path id="Line 5" d="M766.72 880.66L766.72 880.69C766.33 881.09 765.71 881.11 765.3 880.72C764.9 880.33 764.89 879.71 765.27 879.3L765.3 879.3L766.72 880.66ZM787.27 856.33L787.27 856.3C787.66 855.9 788.28 855.89 788.69 856.27C789.09 856.66 789.11 857.28 788.72 857.69L788.69 857.69L787.27 856.33Z" fill="#000000" fill-opacity="0" fill-rule="nonzero"/>
			<path id="Line 5" d="M766 880L788 857" stroke="#5700B1" stroke-opacity="1.000000" stroke-width="2.000000" stroke-linecap="round"/>
		</g>
	</g>
</svg>
