<svg width="16.652344" height="50.254883" viewBox="0 0 16.6523 50.2549" fill="none" xmlns="http://www.w3.org/2000/svg" xmlns:xlink="http://www.w3.org/1999/xlink">
	<desc>
			Created with Pixso.
	</desc>
	<defs/>
	<path id="Arrow 2" d="M8.32 3.02L2.13 9.2C1.64 9.7 0.86 9.7 0.37 9.2C-0.13 8.71 -0.13 7.93 0.37 7.44L7.44 0.37C7.93 -0.13 8.71 -0.13 9.21 0.37L16.28 7.44C16.77 7.93 16.77 8.71 16.28 9.2C15.78 9.7 15 9.7 14.51 9.2L8.32 3.02Z" fill="#3E1126" fill-opacity="1.000000" fill-rule="nonzero"/>
	<path id="Arrow 2" d="M7.07 4.27L2.13 9.2C1.64 9.7 0.86 9.7 0.37 9.2C-0.13 8.71 -0.13 7.93 0.37 7.44L7.44 0.37C7.93 -0.13 8.71 -0.13 9.21 0.37L16.28 7.44C16.77 7.93 16.77 8.71 16.28 9.2C15.78 9.7 15 9.7 14.51 9.2L9.57 4.27L9.57 50.25L7.07 50.25L7.07 4.27Z" fill="#FFFFFF" fill-opacity="1.000000" fill-rule="evenodd"/>
</svg>
