<svg width="32.000000" height="32.000000" viewBox="0 0 32 32" fill="none" xmlns="http://www.w3.org/2000/svg" xmlns:xlink="http://www.w3.org/1999/xlink">
	<desc>
			Created with Pixso.
	</desc>
	<defs>
		<clipPath id="clip1_3843">
			<rect id="Frame" rx="0.000000" width="31.000000" height="31.000000" transform="translate(0.500000 0.500000)" fill="white" fill-opacity="0"/>
		</clipPath>
	</defs>
	<rect id="Frame" rx="0.000000" width="31.000000" height="31.000000" transform="translate(0.500000 0.500000)" fill="#FFFFFF" fill-opacity="0"/>
	<g clip-path="url(#clip1_3843)">
		<path id="Vector" d="M16 21.93C15.1 21.93 14.35 22.68 14.35 23.57C14.35 24.46 15.1 25.21 16 25.21C16.86 25.21 17.64 24.46 17.6 23.61C17.64 22.67 16.9 21.93 16 21.93Z" fill="#FF0000" fill-opacity="1.000000" fill-rule="nonzero"/>
		<path id="Vector" d="M31.22 27.75C32.25 25.97 32.25 23.85 31.23 22.07L20.93 4.23C19.91 2.43 18.07 1.37 16 1.37C13.94 1.37 12.09 2.44 11.08 4.22L0.76 22.08C-0.27 23.88 -0.26 26.02 0.78 27.8C1.81 29.56 3.64 30.62 5.69 30.62L26.27 30.62C28.33 30.62 30.18 29.55 31.22 27.75ZM28.98 26.46C28.41 27.45 27.4 28.04 26.26 28.04L5.69 28.04C4.57 28.04 3.56 27.46 3 26.5C2.44 25.52 2.43 24.35 3 23.36L13.31 5.51C13.87 4.53 14.87 3.95 16 3.95C17.13 3.95 18.13 4.53 18.69 5.51L29 23.37C29.55 24.33 29.55 25.48 28.98 26.46Z" fill="#FF0000" fill-opacity="1.000000" fill-rule="nonzero"/>
		<path id="Vector" d="M15.59 10.38C14.8 10.6 14.32 11.31 14.32 12.18C14.36 12.7 14.39 13.22 14.43 13.74C14.54 15.72 14.65 17.66 14.76 19.64C14.8 20.31 15.32 20.8 16 20.8C16.66 20.8 17.19 20.28 17.23 19.6C17.23 19.2 17.23 18.82 17.26 18.41C17.34 17.14 17.41 15.87 17.49 14.6C17.53 13.78 17.6 12.95 17.64 12.13C17.64 11.83 17.6 11.57 17.49 11.31C17.15 10.57 16.37 10.2 15.59 10.38Z" fill="#FF0000" fill-opacity="1.000000" fill-rule="nonzero"/>
	</g>
</svg>
