<svg width="1685.002930" height="822.500000" viewBox="0 0 1685 822.5" fill="none" xmlns="http://www.w3.org/2000/svg" xmlns:xlink="http://www.w3.org/1999/xlink">
	<desc>
			Created with Pixso.
	</desc>
	<defs/>
	<path id="Vector 39" d="M31 109L1 138.5L1.5 207.5L31 237L31 284L48 301L48 364.5L31 381L31 456L1 484.5L1 537.5L31 566.5L31 618.5L1 649L1 692.5L31 722L31 792L57.5 819L381.5 819L403 802L641.5 802L661 819L949.5 820.5L970 801.5L1028.5 801.5L1048.5 820.5L1227 820.5L1246 801.5L1478 801.5L1497 821.5L1617.5 821.5L1654 785L1654 712L1684 682.5L1684 612.5L1654 584L1654 536L1637 519.5L1637 457.5L1654 441L1654 365L1683.5 336.5L1683.5 282L1654 253L1654 202L1683.5 173L1683.5 126.5L1654 97.5L1654 27.5L1627 1.5L1295.5 1.5L1279.5 16L1041 16L1025 1.5L735 1.5L715 21.5L652.5 21.5L632 1.5L458 1.5L437.5 21.5L204.5 21.5L183.5 1.5L65.5 1.5L31 35L31 109Z" fill="#1D0D30" fill-opacity="0.400000" fill-rule="nonzero"/>
	<path id="Vector 39" d="M31 109L31 35L65.5 1.5L183.5 1.5L204.5 21.5L437.5 21.5L458 1.5L632 1.5L652.5 21.5L715 21.5L735 1.5L1025 1.5L1041 16L1279.5 16L1295.5 1.5L1627 1.5L1654 27.5L1654 97.5L1683.5 126.5L1683.5 173L1654 202L1654 253L1683.5 282L1683.5 336.5L1654 365L1654 441L1637 457.5L1637 519.5L1654 536L1654 584L1684 612.5L1684 682.5L1654 712L1654 785L1617.5 821.5L1497 821.5L1478 801.5L1246 801.5L1227 820.5L1048.5 820.5L1028.5 801.5L970 801.5L949.5 820.5L661 819L641.5 802L403 802L381.5 819L57.5 819L31 792L31 722L1 692.5L1 649L31 618.5L31 566.5L1 537.5L1 484.5L31 456L31 381L48 364.5L48 301L31 284L31 237L1.5 207.5L1 138.5L31 109Z" stroke="#5700B1" stroke-opacity="1.000000" stroke-width="2.000000"/>
	<path id="Vector 40" d="M23 615L1.5 636.5L1.5 549.5L23 570.5L23 615Z" fill="#5700B1" fill-opacity="1.000000" fill-rule="nonzero"/>
	<path id="Vector 40" d="M23 615L23 570.5L1.5 549.5L1.5 636.5L23 615Z" stroke="#5700B1" stroke-opacity="1.000000" stroke-width="2.000000"/>
	<path id="Vector 46" d="M23.5 726L23.5 795.5L46 819L18.5 819L1 800.5L1 703.5L23.5 726Z" fill="#5700B1" fill-opacity="1.000000" fill-rule="nonzero"/>
	<path id="Vector 46" d="M23.5 726L1 703.5L1 800.5L18.5 819L46 819L23.5 795.5L23.5 726Z" stroke="#5700B1" stroke-opacity="1.000000" stroke-width="2.000000"/>
	<path id="Vector 48" d="M1660.5 716.5L1660.5 788L1628 822L1662.5 822L1684 798L1684 693L1660.5 716.5Z" fill="#5700B1" fill-opacity="1.000000" fill-rule="nonzero"/>
	<path id="Vector 48" d="M1660.5 716.5L1684 693L1684 798L1662.5 822L1628 822L1660.5 788L1660.5 716.5Z" stroke="#5700B1" stroke-opacity="1.000000" stroke-width="0.000000"/>
	<path id="Vector 41" d="M24 450L1 472L1 219L22.5 241.5L22.5 290L40 308L40 358.5L24 373.5L24 450Z" fill="#5700B1" fill-opacity="1.000000" fill-rule="nonzero"/>
	<path id="Vector 41" d="M24 450L24 373.5L40 358.5L40 308L22.5 290L22.5 241.5L1 219L1 472L24 450Z" stroke="#5700B1" stroke-opacity="1.000000" stroke-width="2.000000"/>
	<path id="Vector 49" d="M1660 369L1683 347.5L1685 602L1661.5 579.5L1661.5 531L1644 514L1644 463L1660 447.5L1660 369Z" fill="#5700B1" fill-opacity="1.000000" fill-rule="nonzero"/>
	<path id="Vector 49" d="M1660 369L1660 447.5L1644 463L1644 514L1661.5 531L1661.5 579.5L1685 602L1683 347.5L1660 369Z" stroke="#5700B1" stroke-opacity="1.000000" stroke-width="0.000000"/>
	<path id="Vector 42" d="M24 102.5L1 125L1 25.5L25.5 2L54 2L24 30L24 102.5Z" fill="#5700B1" fill-opacity="1.000000" fill-rule="nonzero"/>
	<path id="Vector 42" d="M24 102.5L24 30L54 2L25.5 2L1 25.5L1 125L24 102.5Z" stroke="#5700B1" stroke-opacity="1.000000" stroke-width="2.000000"/>
	<path id="Vector 50" d="M1660 94L1684.5 118L1684.5 23.5L1661.5 0.5L1633.5 0.5L1660 25L1660 94Z" fill="#5700B1" fill-opacity="1.000000" fill-rule="nonzero"/>
	<path id="Vector 50" d="M1660 94L1660 25L1633.5 0.5L1661.5 0.5L1684.5 23.5L1684.5 118L1660 94Z" stroke="#5700B1" stroke-opacity="1.000000" stroke-width="0.000000"/>
	<path id="Vector 43" d="M208 14.5L194 1L450 0.5L434 14.5L208 14.5Z" fill="#5700B1" fill-opacity="1.000000" fill-rule="nonzero"/>
	<path id="Vector 43" d="M208 14.5L194 1L196.87 0.99L446.95 0.5L450 0.5L447.71 2.5L434 14.5L208 14.5ZM208.81 12.5L198.94 2.99L444.66 2.51L433.25 12.5L208.81 12.5Z" fill="#5700B1" fill-opacity="1.000000" fill-rule="evenodd"/>
	<path id="Vector 51" d="M1044.5 11L1032 0L1288.5 0L1275.5 11L1044.5 11Z" fill="#5700B1" fill-opacity="1.000000" fill-rule="nonzero"/>
	<path id="Vector 51" d="M1044.5 11L1032 0L1288.5 0L1286.14 2L1275.5 11L1044.5 11ZM1045.26 9L1037.3 2L1283.04 2L1274.77 9L1045.26 9Z" fill="#5700B1" fill-opacity="1.000000" fill-rule="evenodd"/>
	<path id="Vector 44" d="M727.5 1L640 1L654.5 15.5L712 15.5L727.5 1Z" fill="#5700B1" fill-opacity="1.000000" fill-rule="nonzero"/>
	<path id="Vector 44" d="M724.57 1L640 1L654.5 15.5L712 15.5L725.36 3L727.5 1L724.57 1ZM722.43 3L644.83 3L655.33 13.5L711.21 13.5L722.43 3Z" fill="#5700B1" fill-opacity="1.000000" fill-rule="evenodd"/>
	<path id="Vector 47" d="M1040.5 821.5L957.5 821.5L972.5 807.5L1026.5 807.5L1040.5 821.5Z" fill="#5700B1" fill-opacity="1.000000" fill-rule="nonzero"/>
	<path id="Vector 47" d="M1037.67 821.5L957.5 821.5L959.64 819.5L972.5 807.5L1026.5 807.5L1040.5 821.5L1037.67 821.5ZM1035.67 819.5L1025.67 809.5L973.29 809.5L962.57 819.5L1035.67 819.5Z" fill="#5700B1" fill-opacity="1.000000" fill-rule="evenodd"/>
	<path id="Vector 45" d="M407 808.5L392 820.5L652 820.5L638 808.5L407 808.5Z" fill="#5700B1" fill-opacity="1.000000" fill-rule="nonzero"/>
	<path id="Vector 45" d="M407 808.5L638 808.5L652 820.5L392 820.5L407 808.5Z" stroke="#5700B1" stroke-opacity="1.000000" stroke-width="0.000000"/>
</svg>
