<svg width="864.716797" height="819.223145" viewBox="0 0 864.717 819.223" fill="none" xmlns="http://www.w3.org/2000/svg" xmlns:xlink="http://www.w3.org/1999/xlink">
	<desc>
			Created with Pixso.
	</desc>
	<defs/>
	<path id="Vector 39" d="M32 108.46L2 137.95L2.5 206.93L32 236.42L32 283.4L48.99 300.39L48.99 363.87L32 380.37L32 455.34L2 483.83L2 536.81L32 565.8L32 617.79L2 648.28L2 691.76L32 721.25L32 791.23L58.49 818.22L386.87 818.22L403.87 801.22L642.29 801.22L659.28 817.72L863.71 817.72L863.71 1L735.76 1L715.76 20.99L653.28 20.99L632.79 1L458.85 1L438.36 20.99L205.44 20.99L184.44 1L66.48 1L32 34.48L32 108.46Z" fill="#1FDAFF" fill-opacity="0.050000" fill-rule="nonzero"/>
	<path id="Vector 39" d="M32 108.46L32 34.48L66.48 1L184.44 1L205.44 20.99L438.36 20.99L458.85 1L632.79 1L653.28 20.99L715.76 20.99L735.76 1L863.71 1L863.71 817.72L659.28 817.72L642.29 801.22L403.87 801.22L386.87 818.22L58.49 818.22L32 791.23L32 721.25L2 691.76L2 648.28L32 617.79L32 565.8L2 536.81L2 483.83L32 455.34L32 380.37L48.99 363.87L48.99 300.39L32 283.4L32 236.42L2.5 206.93L2 137.95L32 108.46Z" stroke="#1FD9FF" stroke-opacity="1.000000" stroke-width="2.000000"/>
	<path id="Vector 70" d="M406.83 808.19L397.05 817.97L648.85 817.97L639.07 808.19L406.83 808.19Z" fill="#1FDAFF" fill-opacity="1.000000" fill-rule="nonzero"/>
	<path id="Vector 70" d="M406.83 808.19L639.07 808.19L648.85 817.97L397.05 817.97L406.83 808.19Z" stroke="#1FDAFF" stroke-opacity="1.000000" stroke-width="1.000000"/>
	<path id="Vector 40" d="M23.01 613.84L2.5 633.39L2.5 549.05L23.01 568.61L23.01 613.84Z" fill="#1FDAFF" fill-opacity="1.000000" fill-rule="nonzero"/>
	<path id="Vector 40" d="M23.01 613.84L23.01 568.61L2.5 549.05L2.5 633.39L23.01 613.84Z" stroke="#1FDAFF" stroke-opacity="1.000000" stroke-width="2.000000"/>
	<path id="Vector 41" d="M21.79 445.15L2.23 467.16L1.01 220.42L21.79 239.8L21.79 289.91L38.9 307.03L38.9 358.37L21.79 375.48L21.79 445.15Z" fill="#1FDAFF" fill-opacity="1.000000" fill-rule="nonzero"/>
	<path id="Vector 41" d="M21.79 445.15L21.79 375.48L38.9 358.37L38.9 307.03L21.79 289.91L21.79 239.8L1.01 220.42L2.23 467.16L21.79 445.15Z" stroke="#1FDAFF" stroke-opacity="1.000000" stroke-width="2.000000"/>
	<path id="Vector 42" d="M21.79 104.12L3.51 122.95L4.01 26.99L28.5 1.5L52.35 1.5L21.79 33.22L21.79 104.12Z" fill="#1FDAFF" fill-opacity="1.000000" fill-rule="nonzero"/>
	<path id="Vector 42" d="M21.79 104.12L21.79 33.22L52.35 1.5L28.5 1.5L4.01 26.99L3.51 122.95L21.79 104.12Z" stroke="#1FDAFF" stroke-opacity="1.000000" stroke-width="2.000000"/>
	<path id="Vector 43" d="M210.03 14.89L194.14 0.22L449.61 0.22L432.61 14.89L210.03 14.89Z" fill="#1FDAFF" fill-opacity="1.000000" fill-rule="nonzero"/>
	<path id="Vector 43" d="M210.03 14.89L194.14 0.22L449.61 0.22L447.29 2.22L432.61 14.89L210.03 14.89ZM431.87 12.89L444.23 2.22L199.25 2.22L210.81 12.89L431.87 12.89Z" fill="#1FDAFF" fill-opacity="1.000000" fill-rule="evenodd"/>
	<path id="Vector 44" d="M728.3 0.22L640.29 0.22L656.18 14.99L712.77 14.99L728.3 0.22Z" fill="#1FDAFF" fill-opacity="1.000000" fill-rule="nonzero"/>
	<path id="Vector 44" d="M725.4 0.22L640.29 0.22L656.18 14.99L712.77 14.99L726.2 2.22L728.3 0.22L725.4 0.22ZM723.3 2.22L645.38 2.22L656.97 12.99L711.97 12.99L723.3 2.22Z" fill="#1FDAFF" fill-opacity="1.000000" fill-rule="evenodd"/>
</svg>
