<svg width="162.500000" height="54.637802" viewBox="0 0 162.5 54.6378" fill="none" xmlns="http://www.w3.org/2000/svg" xmlns:xlink="http://www.w3.org/1999/xlink">
	<desc>
			Created with Pixso.
	</desc>
	<defs/>
	<path id="Vector 1" d="M136.21 0.25L56.45 0.25L51.9 4.79L20.91 4.79L0.25 25.45L0.25 46.12L8.51 54.38L28.35 54.38L33.72 49.01L51.08 49.01L56.45 54.38L151.91 54.38L162.25 44.05L162.25 36.2L159.35 33.31L159.35 20.08L162.25 17.19L162.25 9.75L156.87 4.38L140.34 4.38L136.21 0.25Z" fill="#122528" fill-opacity="1.000000" fill-rule="nonzero"/>
	<path id="Vector 1" d="M136.21 0.25L56.45 0.25L51.9 4.79L20.91 4.79L0.25 25.45L0.25 46.12L8.51 54.38L28.35 54.38L33.72 49.01L51.08 49.01L56.45 54.38L151.91 54.38L162.25 44.05L162.25 36.2L159.35 33.31L159.35 20.08L162.25 17.19L162.25 9.75L156.87 4.38L140.34 4.38L136.21 0.25Z" fill="#000000" fill-opacity="0" fill-rule="nonzero"/>
	<path id="Vector 1" d="M108.52 0.25L136.21 0.25L140.34 4.79L156.87 4.79L161.83 9.75L161.83 17.19L159.35 20.08L159.35 33.72L161.83 36.2L162.25 44.05L151.91 54.38L108.52 53.97L108.52 0.25Z" fill="#1FDAFF" fill-opacity="1.000000" fill-rule="nonzero"/>
	<path id="Vector 1" d="M50.66 3.14L53.56 0.25L25.45 0.25L22.56 3.14L50.66 3.14Z" fill="#1FDAFF" fill-opacity="1.000000" fill-rule="nonzero"/>
	<path id="Vector 1" d="M34.96 50.66L31.24 54.38L53.97 54.38L50.25 50.66L34.96 50.66Z" fill="#1FDAFF" fill-opacity="1.000000" fill-rule="nonzero"/>
	<path id="Vector 1" d="M159.35 20.08L162.25 17.19L162.25 9.75L156.87 4.38L140.34 4.38L136.21 0.25L56.45 0.25L51.9 4.79L20.91 4.79L0.25 25.45L0.25 46.12L8.51 54.38L28.35 54.38L33.72 49.01L51.08 49.01L56.45 54.38L151.91 54.38L162.25 44.05L162.25 36.2L159.35 33.31L159.35 20.08L161.83 17.19L161.83 9.75L156.87 4.79L140.34 4.79L136.21 0.25M151.91 54.38L108.52 53.97L108.52 0.25L136.21 0.25M159.35 20.08L159.35 33.72L161.83 36.2L162.25 44.05M53.56 0.25L25.45 0.25L22.56 3.14L50.66 3.14L53.56 0.25ZM31.24 54.38L53.97 54.38L50.25 50.66L34.96 50.66L31.24 54.38Z" stroke="#1FDAFF" stroke-opacity="1.000000" stroke-width="0.500000"/>
</svg>
