<svg width="384.500000" height="385.500000" viewBox="0 0 384.5 385.5" fill="none" xmlns="http://www.w3.org/2000/svg" xmlns:xlink="http://www.w3.org/1999/xlink">
	<desc>
			Created with Pixso.
	</desc>
	<defs>
		<linearGradient x1="192.000061" y1="1.000000" x2="192.000061" y2="384.000122" id="paint_linear_5_278_0" gradientUnits="userSpaceOnUse">
			<stop stop-color="#101010"/>
			<stop offset="1.000000" stop-color="#5E0EBF"/>
		</linearGradient>
	</defs>
	<path id="Vector 10" d="M1 302L1 347L10.5 337.5L10.5 311.5L1 302Z" fill="#5700B1" fill-opacity="1.000000" fill-rule="nonzero"/>
	<path id="Vector 10" d="M1 302L10.5 311.5L10.5 337.5L1 347L1 302Z" stroke="#5700B1" stroke-opacity="1.000000" stroke-width="2.000000"/>
	<path id="Vector 8" d="M370 153.5L383 166.5L383 88L370 101L370 153.5Z" fill="#5700B1" fill-opacity="1.000000" fill-rule="nonzero"/>
	<path id="Vector 8" d="M370 153.5L370 101L383 88L383 166.5L370 153.5Z" stroke="#5700B1" stroke-opacity="1.000000" stroke-width="2.000000"/>
	<path id="Vector 7" d="M1 61.5L61.5 1L37 1L1 37L1 61.5Z" fill="#5700B1" fill-opacity="1.000000" fill-rule="nonzero"/>
	<path id="Vector 7" d="M36.5 1L37 1L61.5 1L1 61.5L1 37L37 1" stroke="#5700B1" stroke-opacity="1.000000" stroke-width="2.000000"/>
	<path id="Vector 9" d="M383 343L342 384L358.6 384L383 359.6L383 343Z" fill="#5700B1" fill-opacity="1.000000" fill-rule="nonzero"/>
	<path id="Vector 9" d="M358.94 384L358.6 384L342 384L383 343L383 359.6L358.6 384" stroke="#5700B1" stroke-opacity="1.000000" stroke-width="2.000000"/>
	<path id="Vector 6" d="" fill="#131313" fill-opacity="1.000000" fill-rule="nonzero"/>
	<path id="Vector 6" d="M74 1L383.5 1L383.5 75L363.5 95L363.5 156.5L383.5 176.5L383.5 217L373.5 227L373.5 261.5L383.5 271.5L383.5 332.5L331.5 384.5L1 384.5L1 356L16 341L16 309L1 294L1 73.5L73.5 1" stroke="#5700B1" stroke-opacity="1.000000" stroke-width="2.000000"/>
	<path id="Rectangle 2707" d="M382.5 1L383 1L383 75.5L363.5 95L363.5 156.5L384 177L383.5 217L373.5 227L373.5 261.5L383 271.5L384 332L332.5 383L327 385L1 384L1 356L16 341L16 309.5L1 294L1 192.5L1 96.75L1 73.5L72.5 2L382.5 1Z" fill="url(#paint_linear_5_278_0)" fill-opacity="1.000000" fill-rule="nonzero"/>
</svg>
