<svg width="228.000000" height="100.000000" viewBox="0 0 228 100" fill="none" xmlns="http://www.w3.org/2000/svg" xmlns:xlink="http://www.w3.org/1999/xlink">
	<desc>
			Created with Pixso.
	</desc>
	<defs>
		<clipPath id="clip1_3769">
			<rect id="PayPal 3" rx="0.000000" width="164.000000" height="43.000000" transform="translate(30.500000 29.500000)" fill="white" fill-opacity="0"/>
		</clipPath>
	</defs>
	<rect id="Rectangle 2715" rx="10.000000" width="228.000000" height="100.000000" fill="#FFFFFF" fill-opacity="1.000000"/>
	<rect id="Rectangle 2715" x="0.500000" y="0.500000" rx="10.000000" width="227.000000" height="99.000000" stroke="#7A7A7A" stroke-opacity="0" stroke-width="1.000000"/>
	<rect id="PayPal 3" rx="0.000000" width="164.000000" height="43.000000" transform="translate(30.500000 29.500000)" fill="#FFFFFF" fill-opacity="0"/>
	<g clip-path="url(#clip1_3769)">
		<path id="Vector" d="M91.49 37.99L82.39 37.99C81.76 37.99 81.23 38.45 81.14 39.06L77.46 62.45C77.38 62.91 77.74 63.32 78.21 63.32L82.55 63.32C83.17 63.32 83.7 62.87 83.8 62.25L84.79 55.95C84.89 55.33 85.42 54.87 86.04 54.87L88.92 54.87C94.92 54.87 98.38 51.97 99.28 46.21C99.69 43.69 99.3 41.71 98.12 40.32C96.83 38.8 94.53 37.99 91.49 37.99ZM92.54 46.53C92.04 49.81 89.54 49.81 87.13 49.81L85.76 49.81L86.72 43.69C86.78 43.33 87.1 43.05 87.47 43.05L88.1 43.05C89.74 43.05 91.29 43.05 92.09 43.99C92.57 44.55 92.72 45.38 92.54 46.53Z" fill="#253B80" fill-opacity="1.000000" fill-rule="nonzero"/>
		<path id="Vector" d="M118.69 46.43L114.33 46.43C113.96 46.43 113.64 46.7 113.58 47.07L113.39 48.29L113.09 47.85C112.14 46.48 110.04 46.02 107.94 46.02C103.12 46.02 99.01 49.67 98.21 54.8C97.79 57.36 98.38 59.8 99.83 61.51C101.16 63.07 103.06 63.73 105.32 63.73C109.2 63.73 111.35 61.23 111.35 61.23L111.16 62.44C111.09 62.91 111.44 63.32 111.91 63.32L115.83 63.32C116.45 63.32 116.98 62.87 117.08 62.25L119.43 47.31C119.51 46.85 119.16 46.43 118.69 46.43ZM112.61 54.93C112.19 57.42 110.22 59.1 107.7 59.1C106.43 59.1 105.42 58.69 104.77 57.92C104.13 57.15 103.88 56.06 104.09 54.85C104.48 52.38 106.49 50.65 108.97 50.65C110.21 50.65 111.21 51.06 111.88 51.84C112.54 52.62 112.81 53.72 112.61 54.93Z" fill="#253B80" fill-opacity="1.000000" fill-rule="nonzero"/>
		<path id="Vector" d="M141.9 46.43L137.52 46.43C137.1 46.43 136.71 46.64 136.47 46.98L130.43 55.9L127.87 47.33C127.71 46.8 127.22 46.43 126.66 46.43L122.35 46.43C121.83 46.43 121.47 46.94 121.63 47.43L126.46 61.62L121.92 68.03C121.57 68.54 121.93 69.23 122.54 69.23L126.92 69.23C127.33 69.23 127.72 69.03 127.95 68.69L142.52 47.62C142.87 47.12 142.51 46.43 141.9 46.43Z" fill="#253B80" fill-opacity="1.000000" fill-rule="nonzero"/>
		<path id="Vector" d="M156.39 37.99L147.29 37.99C146.67 37.99 146.14 38.45 146.05 39.06L142.37 62.45C142.29 62.91 142.65 63.32 143.11 63.32L147.78 63.32C148.22 63.32 148.59 63.01 148.66 62.57L149.7 55.95C149.8 55.33 150.33 54.87 150.95 54.87L153.83 54.87C159.83 54.87 163.28 51.97 164.19 46.21C164.6 43.69 164.2 41.71 163.03 40.32C161.74 38.8 159.44 37.99 156.39 37.99ZM157.45 46.53C156.95 49.81 154.45 49.81 152.04 49.81L150.67 49.81L151.63 43.69C151.69 43.33 152.01 43.05 152.38 43.05L153.01 43.05C154.65 43.05 156.2 43.05 157 43.99C157.48 44.55 157.63 45.38 157.45 46.53Z" fill="#179BD7" fill-opacity="1.000000" fill-rule="nonzero"/>
		<path id="Vector" d="M183.6 46.43L179.24 46.43C178.87 46.43 178.55 46.7 178.5 47.07L178.3 48.29L178 47.85C177.05 46.48 174.95 46.02 172.85 46.02C168.03 46.02 163.92 49.67 163.12 54.8C162.71 57.36 163.3 59.8 164.74 61.51C166.07 63.07 167.97 63.73 170.23 63.73C174.11 63.73 176.27 61.23 176.27 61.23L176.07 62.44C176 62.91 176.35 63.32 176.82 63.32L180.75 63.32C181.37 63.32 181.9 62.87 181.99 62.25L184.35 47.31C184.42 46.85 184.06 46.43 183.6 46.43ZM177.52 54.93C177.1 57.42 175.13 59.1 172.61 59.1C171.34 59.1 170.33 58.69 169.68 57.92C169.04 57.15 168.79 56.06 169 54.85C169.39 52.38 171.4 50.65 173.88 50.65C175.12 50.65 176.12 51.06 176.79 51.84C177.45 52.62 177.72 53.72 177.52 54.93Z" fill="#179BD7" fill-opacity="1.000000" fill-rule="nonzero"/>
		<path id="Vector" d="M188.73 38.64L185 62.45C184.93 62.91 185.28 63.32 185.75 63.32L189.5 63.32C190.13 63.32 190.66 62.87 190.75 62.25L194.43 38.87C194.51 38.41 194.15 37.99 193.69 37.99L189.48 37.99C189.11 37.99 188.79 38.27 188.73 38.64Z" fill="#179BD7" fill-opacity="1.000000" fill-rule="nonzero"/>
		<path id="Vector" d="M39.66 67.87L40.36 63.44L38.81 63.4L31.41 63.4L36.55 30.72C36.57 30.62 36.62 30.53 36.69 30.46C36.77 30.4 36.87 30.36 36.97 30.36L49.45 30.36C53.59 30.36 56.45 31.22 57.95 32.93C58.65 33.73 59.09 34.57 59.31 35.49C59.53 36.45 59.54 37.6 59.32 39.01L59.3 39.11L59.3 40.02L60 40.41C60.59 40.73 61.06 41.08 61.42 41.5C62.02 42.18 62.41 43.05 62.57 44.08C62.74 45.14 62.68 46.4 62.41 47.83C62.08 49.47 61.57 50.9 60.87 52.07C60.23 53.15 59.41 54.05 58.44 54.74C57.52 55.4 56.42 55.9 55.17 56.22C53.97 56.53 52.59 56.69 51.08 56.69L50.11 56.69C49.42 56.69 48.75 56.94 48.21 57.39C47.68 57.85 47.33 58.48 47.22 59.16L47.15 59.56L45.92 67.37L45.87 67.65C45.85 67.74 45.83 67.79 45.79 67.82C45.75 67.85 45.71 67.87 45.66 67.87L39.66 67.87Z" fill="#253B80" fill-opacity="1.000000" fill-rule="nonzero"/>
		<path id="Vector" d="M60.66 39.22C60.63 39.46 60.58 39.7 60.54 39.95C58.89 48.42 53.26 51.34 46.07 51.34L42.41 51.34C41.52 51.34 40.78 51.98 40.65 52.85L38.77 64.77L38.24 68.15C38.15 68.72 38.59 69.23 39.16 69.23L45.66 69.23C46.43 69.23 47.08 68.67 47.2 67.91L47.27 67.58L48.49 59.8L48.57 59.38C48.69 58.62 49.34 58.06 50.11 58.06L51.08 58.06C57.38 58.06 62.3 55.5 63.74 48.09C64.34 44.99 64.03 42.41 62.44 40.59C61.96 40.04 61.36 39.59 60.66 39.22Z" fill="#179BD7" fill-opacity="1.000000" fill-rule="nonzero"/>
		<path id="Vector" d="M58.94 38.53C58.69 38.46 58.43 38.39 58.16 38.33C57.9 38.27 57.62 38.22 57.34 38.17C56.35 38.01 55.27 37.94 54.11 37.94L44.33 37.94C44.09 37.94 43.86 37.99 43.66 38.09C43.2 38.31 42.87 38.74 42.79 39.26L40.71 52.47L40.65 52.85C40.78 51.98 41.53 51.34 42.41 51.34L46.07 51.34C53.26 51.34 58.89 48.42 60.54 39.95C60.58 39.7 60.63 39.46 60.66 39.22C60.25 39 59.8 38.81 59.31 38.65C59.19 38.61 59.07 38.57 58.94 38.53Z" fill="#222D65" fill-opacity="1.000000" fill-rule="nonzero"/>
		<path id="Vector" d="M42.79 39.26C42.87 38.74 43.2 38.31 43.66 38.09C43.86 37.99 44.09 37.94 44.33 37.94L54.11 37.94C55.27 37.94 56.35 38.02 57.34 38.18C57.62 38.22 57.9 38.27 58.16 38.33C58.43 38.39 58.69 38.46 58.94 38.53C59.07 38.57 59.19 38.61 59.31 38.65C59.8 38.81 60.25 39 60.66 39.22C61.16 36.09 60.66 33.96 58.97 32.03C57.11 29.9 53.75 29 49.45 29L36.97 29C36.09 29 35.34 29.64 35.21 30.51L30.01 63.53C29.91 64.18 30.41 64.77 31.07 64.77L38.77 64.77L40.71 52.47L42.79 39.26Z" fill="#253B80" fill-opacity="1.000000" fill-rule="nonzero"/>
	</g>
</svg>
