<svg width="228.000000" height="100.000000" viewBox="0 0 228 100" fill="none" xmlns="http://www.w3.org/2000/svg" xmlns:xlink="http://www.w3.org/1999/xlink">
	<desc>
			Created with Pixso.
	</desc>
	<defs>
		<clipPath id="clip1_3758">
			<rect id="Square,_Inc._logo 1" rx="0.000000" width="163.000000" height="40.000000" transform="translate(32.500000 32.500000)" fill="white" fill-opacity="0"/>
		</clipPath>
	</defs>
	<rect id="Rectangle 2715" rx="10.000000" width="228.000000" height="100.000000" fill="#FFFFFF" fill-opacity="1.000000"/>
	<rect id="Rectangle 2715" x="0.500000" y="0.500000" rx="10.000000" width="227.000000" height="99.000000" stroke="#7A7A7A" stroke-opacity="0" stroke-width="1.000000"/>
	<rect id="Square,_Inc._logo 1" rx="0.000000" width="163.000000" height="40.000000" transform="translate(32.500000 32.500000)" fill="#FFFFFF" fill-opacity="0"/>
	<g clip-path="url(#clip1_3758)">
		<path id="Vector" d="M38.85 32L66.14 32C67.96 31.99 69.7 32.72 70.99 34C72.27 35.29 73 37.03 73 38.85L73 66.14C73 69.93 69.93 73 66.14 73L38.85 73C35.06 72.99 32 69.93 32 66.14L32 38.85C32 35.06 35.06 32 38.85 32ZM63.39 65.54C64.58 65.54 65.55 64.57 65.55 63.38L65.54 41.61C65.54 40.42 64.57 39.45 63.38 39.45L41.61 39.45C41.04 39.45 40.49 39.68 40.08 40.08C39.68 40.49 39.45 41.04 39.45 41.62L39.45 63.38C39.45 64.57 40.42 65.54 41.61 65.54L63.39 65.54Z" fill="#3E4348" fill-opacity="1.000000" fill-rule="evenodd"/>
		<path id="Vector" d="M48.14 58.05C47.46 58.05 46.91 57.49 46.91 56.81L46.91 48.12C46.91 47.79 47.04 47.48 47.27 47.24C47.51 47.01 47.82 46.88 48.16 46.88L56.85 46.88C57.18 46.88 57.5 47.01 57.74 47.24C57.97 47.48 58.1 47.79 58.1 48.12L58.1 56.81C58.1 57.14 57.97 57.46 57.74 57.69C57.5 57.93 57.18 58.06 56.85 58.06L48.14 58.05Z" fill="#3E4348" fill-opacity="1.000000" fill-rule="nonzero"/>
		<path id="Vector" d="M93.86 50.67C92.59 50.32 91.39 50 90.46 49.58C88.73 48.81 87.93 47.74 87.93 46.21C87.93 43.33 90.71 42.04 93.48 42.04C96.12 42.04 98.42 43.13 99.97 45.1L100.07 45.24L102.3 43.5L102.19 43.36C100.14 40.75 97.09 39.32 93.62 39.32C91.31 39.32 89.18 39.94 87.65 41.08C85.92 42.34 85.01 44.17 85.01 46.36C85.01 51.44 89.8 52.68 93.65 53.68C97.54 54.7 99.92 55.48 99.92 58.45C99.92 61.37 97.56 63.26 93.91 63.26C92.1 63.26 88.75 62.78 86.65 59.57L86.55 59.41L84.2 61.11L84.3 61.25C86.28 64.26 89.72 65.99 93.73 65.99C99.17 65.99 102.83 62.92 102.83 58.34C102.83 53.11 97.85 51.76 93.86 50.67Z" fill="#3E4348" fill-opacity="1.000000" fill-rule="nonzero"/>
		<path id="Vector" d="M120.59 49.61L120.59 46.86L123.21 46.86L123.21 72.99L120.59 72.99L120.59 62.78C119.1 64.83 116.85 65.96 114.22 65.96C109.23 65.96 105.75 61.97 105.75 56.21C105.75 50.45 109.24 46.43 114.22 46.43C116.84 46.43 119.08 47.56 120.59 49.61ZM108.52 56.18C108.52 61.51 111.57 63.41 114.43 63.41L114.43 63.41C118.17 63.41 120.59 60.54 120.59 56.18C120.59 51.81 118.17 48.98 114.43 48.98C110.07 48.98 108.52 52.7 108.52 56.18Z" fill="#3E4348" fill-opacity="1.000000" fill-rule="evenodd"/>
		<path id="Vector" d="M140.53 46.86L140.53 57.17C140.53 60.79 138.06 63.41 134.65 63.41C131.83 63.41 130.45 61.73 130.45 58.28L130.45 46.86L127.83 46.86L127.83 58.81C127.83 63.29 130.26 65.96 134.34 65.96C136.87 65.96 139.05 64.88 140.53 62.92L140.53 65.53L143.15 65.53L143.15 46.86L140.53 46.86Z" fill="#3E4348" fill-opacity="1.000000" fill-rule="nonzero"/>
		<path id="Vector" d="M148.09 48.82C150.02 47.3 152.64 46.43 155.28 46.43C159.44 46.43 161.92 48.51 161.92 51.98L161.92 65.54L159.3 65.54L159.3 63.47C157.97 65.12 156.06 65.96 153.6 65.96C149.58 65.96 147.09 63.77 147.09 60.24C147.09 55.65 151.41 54.93 153.25 54.62C153.56 54.58 153.87 54.53 154.18 54.48L154.19 54.48C156.7 54.09 159.3 53.69 159.3 51.56C159.3 49.14 156.17 48.95 155.2 48.95C153.51 48.95 151.11 49.45 149.48 50.87L149.33 51L147.96 48.92L148.09 48.82ZM149.82 60.09C149.82 63.08 152.64 63.41 153.85 63.41C156.49 63.41 159.31 62 159.3 58.06L159.3 55.36C158.02 56.16 156.2 56.48 154.58 56.76L154.55 56.77L153.74 56.91C151.14 57.39 149.82 58.01 149.82 60.09Z" fill="#3E4348" fill-opacity="1.000000" fill-rule="evenodd"/>
		<path id="Vector" d="M177.09 47.21C176.47 46.77 175.49 46.5 174.47 46.5C172.37 46.53 170.4 47.54 169.16 49.24L169.16 46.85L166.54 46.85L166.54 65.52L169.16 65.52L169.16 55.54C169.16 51.11 171.65 49.13 174.11 49.13C174.83 49.12 175.55 49.27 176.2 49.57L176.38 49.66L177.21 47.29L177.09 47.21Z" fill="#3E4348" fill-opacity="1.000000" fill-rule="nonzero"/>
		<path id="Vector" d="M177.86 56.25C177.86 50.47 181.46 46.43 186.61 46.43C191.58 46.43 195.04 50.02 195.03 55.16C195.03 55.6 195.01 56.05 194.96 56.49L194.94 56.65L180.62 56.65C180.69 60.76 183.16 63.41 186.96 63.41C189.14 63.41 191.02 62.52 192.27 60.91L192.38 60.77L194.28 62.46L194.18 62.59C192.91 64.12 190.61 65.96 186.81 65.96C181.46 65.96 177.86 62.06 177.86 56.25ZM186.54 48.95C183.34 48.95 181.07 51.06 180.72 54.34L192.27 54.34C192.04 51.7 190.43 48.95 186.54 48.95Z" fill="#3E4348" fill-opacity="1.000000" fill-rule="evenodd"/>
	</g>
</svg>
